<svg width="20" height="20" viewBox="0 0 20 20" fill="none" xmlns="http://www.w3.org/2000/svg">
<path id="Subtract" fill-rule="evenodd" clip-rule="evenodd" d="M10 20C15.5228 20 20 15.5228 20 10C20 4.47715 15.5228 0 10 0C4.47715 0 0 4.47715 0 10C0 15.5228 4.47715 20 10 20ZM7.33421 7.33457L8.06858 10.5169L10.5165 8.06895L7.33421 7.33457ZM12.6659 12.6662L9.48231 11.9316L11.9312 9.48268L12.6659 12.6662ZM5.04364 6.30322C4.86916 5.54714 5.54677 4.86952 6.30285 5.044L12.6944 6.51899C13.0857 6.60927 13.3912 6.91476 13.4815 7.306L14.9564 13.6976C15.1309 14.4537 14.4533 15.1313 13.6972 14.9568L7.30563 13.4818C6.9144 13.3915 6.60891 13.086 6.51862 12.6948L5.04364 6.30322Z" fill="white"/>
</svg>
